<?xml version="1.0" encoding="UTF-8" standalone="no"?>
<!-- Generator: visioncortex VTracer -->

<svg
   id="svg"
   version="1.1"
   style="display: block;"
   viewBox="0 0 2048 2048"
   sodipodi:docname="logo-vector.svg"
   inkscape:version="1.3.2 (091e20e, 2023-11-25, custom)"
   xmlns:inkscape="http://www.inkscape.org/namespaces/inkscape"
   xmlns:sodipodi="http://sodipodi.sourceforge.net/DTD/sodipodi-0.dtd"
   xmlns="http://www.w3.org/2000/svg"
   xmlns:svg="http://www.w3.org/2000/svg">
  <defs
     id="defs14" />
  <sodipodi:namedview
     id="namedview14"
     pagecolor="#ffffff"
     bordercolor="#000000"
     borderopacity="0.25"
     inkscape:showpageshadow="2"
     inkscape:pageopacity="0.0"
     inkscape:pagecheckerboard="0"
     inkscape:deskcolor="#d1d1d1"
     showgrid="false"
     inkscape:zoom="0.88818359"
     inkscape:cx="587.71633"
     inkscape:cy="848.36064"
     inkscape:window-width="3164"
     inkscape:window-height="1756"
     inkscape:window-x="5009"
     inkscape:window-y="201"
     inkscape:window-maximized="0"
     inkscape:current-layer="svg" />
  <path
     d="M0 0 C5.19183684 3.99588527 10.490241 7.7718123 15.875 11.5 C41.03655198 29.04164234 65.04858035 47.96637078 88.375 67.875 C89.48230469 68.80699219 90.58960938 69.73898437 91.73046875 70.69921875 C106.15075019 82.86735772 119.58617383 95.99434001 132.9375 109.3125 C133.55022766 109.92254883 134.16295532 110.53259766 134.79425049 111.16113281 C141.20613742 117.5517492 147.51946392 123.96304735 153.375 130.875 C154.82945517 132.48268373 156.28720895 134.08739715 157.75 135.6875 C161.76830814 140.13781055 165.58852204 144.72256581 169.35546875 149.38671875 C171.01786841 151.4349752 172.71346702 153.44150689 174.4375 155.4375 C176.375 157.875 176.375 157.875 176.375 159.875 C175.6629541 159.8843457 174.9509082 159.89369141 174.21728516 159.90332031 C97.95325652 161.14735212 25.84972045 192.79941369 -21.625 253.875 C-22.41261719 254.85726563 -23.20023438 255.83953125 -24.01171875 256.8515625 C-42.81763607 280.64680482 -59.01223119 308.70987299 -67.625 337.875 C-68.13845734 339.43993935 -68.65836298 341.00279245 -69.1875 342.5625 C-69.41824219 343.26503906 -69.64898437 343.96757813 -69.88671875 344.69140625 C-70.40644025 346.22857195 -70.95330539 347.75669353 -71.51953125 349.27734375 C-81.55464204 377.14376695 -83.85880918 407.15208415 -83.875 436.5 C-83.87567474 437.59692169 -83.87634949 438.69384338 -83.87704468 439.82400513 C-83.8612065 456.02557601 -83.41993748 471.8798113 -80.625 487.875 C-80.44275879 488.95668457 -80.26051758 490.03836914 -80.07275391 491.15283203 C-70.81181657 545.24072919 -47.56233113 597.95680814 -9.91015625 638.40234375 C-7.99596117 640.47360099 -6.17912389 642.58414701 -4.375 644.75 C4.93097256 655.40719106 16.1007104 664.40979266 27.375 672.875 C29.02048828 674.12216797 29.02048828 674.12216797 30.69921875 675.39453125 C70.73449719 704.92113033 115.56307343 717.30976734 164.375 721.875 C160.5229429 726.49977514 156.58873242 730.69306093 152.125 734.75 C151.5592627 735.2653833 150.99352539 735.7807666 150.41064453 736.31176758 C148.73517333 737.83623369 147.05516163 739.35570491 145.375 740.875 C144.04855469 742.09123047 144.04855469 742.09123047 142.6953125 743.33203125 C137.6649839 747.92039807 132.49702162 752.29326045 127.203125 756.57421875 C124.35556615 758.89081013 121.55296109 761.25473645 118.75 763.625 C111.8696418 769.36305935 104.77471718 774.79835593 97.61816406 780.18505859 C96.15661349 781.28615274 94.69749882 782.39049003 93.24121094 783.49853516 C64.94442667 805.0105962 34.69131137 824.0849692 3.375 840.875 C2.54983887 841.3184375 1.72467773 841.761875 0.87451172 842.21875 C-5.91746411 845.85257693 -12.7589689 849.38339721 -19.625 852.875 C-20.92518066 853.53918945 -22.22536133 854.20337891 -23.56494141 854.88769531 C-27.04935627 856.66279591 -30.54495098 858.41424452 -34.04800415 860.1522522 C-35.42260898 860.83740361 -36.79424289 861.52855117 -38.16268921 862.22592163 C-40.08936784 863.20562525 -42.02889547 864.15993235 -43.96875 865.11328125 C-45.08443359 865.67055908 -46.20011719 866.22783691 -47.34960938 866.80200195 C-52.68968328 868.55137769 -57.15896442 867.69035401 -61.7265625 864.49609375 C-62.45343262 863.99513184 -63.18030273 863.49416992 -63.92919922 862.97802734 C-64.69506348 862.42840332 -65.46092773 861.8787793 -66.25 861.3125 C-67.0661377 860.73967285 -67.88227539 860.1668457 -68.72314453 859.57666016 C-83.19480911 849.3276137 -97.26899154 838.54414261 -110.625 826.875 C-111.29660156 826.30265625 -111.96820313 825.7303125 -112.66015625 825.140625 C-127.11718313 812.74011787 -141.3355493 799.44123314 -153.625 784.875 C-154.51574219 783.85019531 -155.40648437 782.82539062 -156.32421875 781.76953125 C-182.17614366 752.00779762 -203.38149715 719.77634926 -221.20751953 684.65869141 C-222.41412872 682.28911545 -223.63685268 679.92946255 -224.87109375 677.57421875 C-238.40112414 651.3580834 -248.16238447 623.08371843 -256.625 594.875 C-256.98754883 593.69357422 -256.98754883 593.69357422 -257.35742188 592.48828125 C-262.05223026 577.14784242 -265.47569109 561.59854011 -268.625 545.875 C-268.92301514 544.40281006 -268.92301514 544.40281006 -269.22705078 542.90087891 C-272.21353498 527.98413502 -274.16157104 513.0132373 -275.625 497.875 C-275.73086426 496.84262207 -275.83672852 495.81024414 -275.94580078 494.74658203 C-280.88236185 444.79421683 -279.59603026 392.23435607 -270.625 342.875 C-270.40328125 341.62799316 -270.1815625 340.38098633 -269.953125 339.09619141 C-254.45139972 252.96923665 -215.89373093 168.31573062 -156.1796875 103.67578125 C-154.22647205 101.53441201 -152.32908124 99.36961088 -150.44140625 97.171875 C-146.07533228 92.16751025 -141.3923797 87.49620245 -136.6875 82.8125 C-135.40456055 81.52375977 -135.40456055 81.52375977 -134.09570312 80.20898438 C-129.10122561 75.2221262 -123.99969154 70.44813188 -118.625 65.875 C-117.62597656 65.00617188 -116.62695312 64.13734375 -115.59765625 63.2421875 C-88.00444623 39.61202912 -58.05787735 20.17004185 -25.625 3.875 C-24.4484082 3.27969482 -24.4484082 3.27969482 -23.24804688 2.67236328 C-6.9201007 -5.53145173 -6.9201007 -5.53145173 0 0 Z "
     transform="translate(541.625,604.125)"
     style="fill: #203654;"
     id="path3" />
  <path
     d="M 0,0 2.6730957,0.63696289 C 9.893668,2.3673973 16.838464,4.519912 23.8125,7.0625 l 3.249756,1.1794434 C 43.828183,14.421712 60.208901,21.631343 76,30 l 2.42627,1.285645 C 88.616286,36.719419 98.581101,42.290077 108,49 l 2.71094,1.917969 C 122.9652,59.713649 134.65951,69.066922 146,79 l 2.64844,2.304687 C 158.3712,89.8947 167.64721,99.068445 176,109 l 2.37109,2.70703 c 24.97127,28.813 45.05432,62.23442 58.81641,97.79297 l 0.93652,2.40454 c 1.01062,2.68255 1.94454,5.38429 2.87598,8.09546 l 1.26254,3.56773 c 3.70921,11.3385 4.44918,21.57133 4.37238,33.43973 0.006,1.96668 0.0137,3.93336 0.0236,5.90002 0.0207,5.358 0.0106,10.71555 -0.005,16.07355 -0.0114,5.79628 0.006,11.59248 0.0199,17.38874 0.0222,11.33631 0.0175,22.67246 0.003,34.00879 -0.0113,9.21667 -0.0128,18.4333 -0.007,27.64997 l 0.002,3.98227 c 0.002,2.67006 0.003,5.34011 0.005,8.01016 0.0142,25.00792 -0.002,50.01573 -0.029,75.02363 -0.0223,21.43774 -0.0185,42.87534 0.005,64.31308 0.0268,24.92289 0.0373,49.84571 0.0219,74.76862 -0.002,2.65967 -0.003,5.31933 -0.005,7.97899 l -0.002,3.965 c -0.004,9.20149 0.003,18.40292 0.0147,27.60439 0.014,11.21935 0.0102,22.43852 -0.0164,33.65785 -0.0131,5.71953 -0.0183,11.43876 -0.002,17.15829 0.015,5.24384 0.007,10.48713 -0.0199,15.73092 -0.006,1.88872 -0.003,3.77749 0.009,5.66618 C 246.75175,712.48064 242.70145,725.78076 236,741 c -0.84802,1.99073 -1.69567,3.98162 -2.54297,5.97266 C 222.35801,772.66303 209.42493,796.96351 192,819 l -2.60547,3.40625 C 183.32072,830.31842 176.82325,837.72312 170,845 c -1.51139,1.66841 -3.02276,3.33683 -4.5332,5.0061 C 159.94919,856.07248 154.223,861.66734 148,867 l -2.84375,2.50391 c -46.370917,40.22325 -103.639704,66.19871 -163.665039,78.00537 -2.206167,0.43457 -4.407693,0.89256 -6.608398,1.354 C -29.396749,949.70283 -33.683255,950.38919 -38,951 l -2.828125,0.41455 C -59.855011,954.06481 -78.82123,954.2947 -98,954.3125 l -3.67188,0.0106 C -121.64604,954.35501 -141.5194,953.579 -161.25,950.25 l -3.0769,-0.5083 c -24.45677,-4.17532 -47.87467,-10.54678 -71.2356,-18.8042 l -3.53296,-1.24707 c -23.85008,-8.57585 -23.85008,-8.57585 -18.11157,-16.01465 23.67858,-23.36956 55.40118,-35.03031 86.02951,-46.36691 5.79998,-2.14825 11.58979,-4.32367 17.38065,-6.49637 l 3.41038,-1.27794 c 66.242582,-24.85525 134.310543,-53.93949 187.512222,-101.84901 1.350355,-1.21439 2.708235,-2.42043 4.070801,-3.6211 6.611766,-5.8629 12.926025,-12.0008 19.171875,-18.24756 1.690165,-1.68797 3.3882,-3.36775 5.08667,-5.04736 C 72.082721,724.17617 78.196673,717.33654 84,710 c 1.191515,-1.43783 2.387815,-2.87172 3.589844,-4.30078 C 94.808423,697.06627 101.6261,688.28234 108,679 l 1.69092,-2.44141 C 127.23628,651.21788 143.01119,624.8917 158.50781,598.26562 176.81516,566.81576 195.59917,535.3148 221,509 l 1.76514,-1.83154 C 229.13127,500.59789 235.40245,494.16633 243,489 238.8904,482.46547 234.68501,476.01007 230.35645,469.61865 222.06647,457.35529 214.29905,444.87645 207,432 l -1.5459,-2.7251 C 197.67135,415.46879 190.67428,401.3696 184,387 c -0.69111,-1.4833 -1.38236,-2.96653 -2.07373,-4.44971 -7.76247,-16.66291 -15.48861,-33.33066 -22.72559,-50.22998 -2.8022,-6.50707 -5.85748,-12.82294 -9.09131,-19.1289 -1.59606,-3.13033 -3.108,-6.29242 -4.59375,-9.47657 -6.09983,-13.06148 -12.75284,-25.65671 -20.00488,-38.11523 -1.36813,-2.35421 -2.71968,-4.71693 -4.06543,-7.08399 C 106.48364,232.39124 88.639648,207.78077 69,185 l -1.828125,-2.13672 C 57.249914,171.37596 46.948817,159.95341 35.410156,150.06641 33.467137,148.40051 31.541145,146.71946 29.621094,145.02734 -14.703322,106.0733 -66.538355,77.002842 -120.04688,52.714844 -161.39202,33.917227 -161.39202,33.917227 -179,20 l -3.27734,-2.589844 C -200,2.9356386 -206.41877,4.5776502 -206.41877,-1.3579884 -194.50432,-4.3632978 -176.19147,-8.4262412 -164,-10 l 3.14404,-0.418945 C -107.29795,-17.26732 -52.121265,-13.925529 0,0 Z"
     transform="translate(802,580)"
     style="fill:#203452"
     id="path4"
     sodipodi:nodetypes="ccccsccccccccccccccccssccssscscsccccccccccccccccccccccccccccccccccccccccccccccccccccccccc" />
  <path
     d="M 0,0 2.8097534,0.05535889 C 41.294316,0.86651295 79.845294,4.604092 117,15 c 2.28493,0.620638 4.57008,1.240424 6.85547,1.859375 C 129.91969,18.519686 135.96937,20.221419 142,22 l 3.16821,0.933594 c 7.54584,2.269323 14.92202,4.846715 22.26929,7.691406 l 3.39062,1.3125 C 185.2306,37.581052 199.31251,43.794594 212.875,51.25 l 2.14258,1.175781 c 15.9302,9.011334 12.32581,12.440984 0.42383,24.195313 l -2.14357,2.132095 c -2.99627,2.980078 -5.99849,5.954133 -9.00023,8.928696 -2.20418,2.185957 -4.40524,4.375014 -6.6062,6.564209 l -2.02086,1.995712 c -3.88862,3.868574 -7.58264,7.848904 -11.16022,12.007274 -2.07434,2.40478 -4.23048,4.73081 -6.38533,7.06342 -4.03779,4.43246 -7.89807,8.96492 -11.66016,13.63281 -1.80569,2.23781 -3.62463,4.45951 -5.46093,6.67188 C 135.8319,166.05348 111.21392,200.92953 97,238 c -6.625284,-0.7107 -13.04612,-2.0023 -19.5625,-3.375 -15.648906,-3.20468 -31.362361,-5.18109 -47.25,-6.75 l -2.30957,-0.22925 C 25.253541,227.40291 22.628247,227.19695 20,227 l -3.427002,-0.26978 c -14.8089736,-0.99905 -29.6409,-0.91757 -44.477051,-0.91552 -3.881036,1e-4 -7.761891,-0.0136 -11.642884,-0.0308 -3.777325,-0.014 -7.554619,-0.0132 -11.331969,-0.0144 l -4.136612,-0.0218 c -14.980287,0.0349 -29.354636,1.98519 -43.921982,5.50224 l -3.94092,0.94189 C -135.16123,240.06467 -163.99217,254.26363 -190,275 l -3.14453,2.46875 c -5.10716,4.08014 -9.82422,8.32744 -14.29688,13.09766 L -211,294 c -1.62733,1.7051 -3.30157,3.36571 -5,5 -15.75531,15.68662 -27.62325,34.63624 -35.9375,50.875 l -1.8418,3.49219 c -3.64466,7.04556 -6.64177,14.0867 -9.17993,21.60302 -0.91156,2.65364 -1.92232,5.20838 -3.04077,7.77979 -1.77882,4.41837 -3.18693,8.92506 -4.5,13.5 l -0.6709,2.30273 c -1.19637,4.34106 -2.00675,8.52476 -2.43847,13.00977 -1.5549,14.81801 -5.98716,20.49634 -18.12891,28.81201 -3.62885,2.60804 -6.84118,5.6117 -10.07422,8.68799 l -1.85254,1.74438 c -7.44684,7.09009 -14.3761,14.66228 -21.02246,22.50562 C -327,476 -327,476 -328,476 c -0.22919,-39.71224 -0.40525,-79.42435 -0.51065,-119.13712 -0.0125,-4.69477 -0.0254,-9.38955 -0.0387,-14.08432 l -0.008,-2.8321 c -0.0434,-15.10746 -0.12224,-30.21453 -0.21426,-45.32176 -0.0937,-15.51626 -0.1491,-31.03232 -0.16935,-46.54885 -0.0137,-9.56488 -0.0568,-19.12869 -0.13828,-28.69324 -0.0531,-6.57025 -0.0688,-13.13995 -0.0559,-19.7104 0.006,-3.78444 -0.009,-7.56548 -0.057,-11.34984 -2.4573,-32.02533 19.79824,-58.66158 40.16089,-81.10753 1.80967,-1.97323 3.54965,-3.98592 5.28125,-6.02734 C -276.20386,92.533188 -267.86734,84.294353 -259,77 l 3.15234,-2.628906 C -240.91135,62.069522 -224.88312,51.429932 -208,42 l 2.15137,-1.220703 c 28.75986,-16.224829 60.75511,-27.071268 93.13623,-33.2573243 2.6432,-0.5086566 5.27663,-1.0545731 7.91162,-1.604004 C -70.397046,-0.96468389 -34.919526,-0.701439 0,0 Z"
     transform="translate(1455,568)"
     style="fill:#54c0db"
     id="path5"
     sodipodi:nodetypes="ccccccsccccsccccccccccccccccccccccccccccccccccccssscccccccccccccc" />
  <path
     d="M0 0 C0.91869873 0.26506348 1.83739746 0.53012695 2.78393555 0.80322266 C10.894091 3.23039596 18.33384229 6.53451947 25.875 10.375 C27.10863281 10.94605469 28.34226562 11.51710938 29.61328125 12.10546875 C46.54605784 20.08684787 62.04342365 30.78934893 75.875 43.375 C77.01808831 44.39729294 78.16132204 45.41942329 79.3046875 46.44140625 C84.51013637 51.13276387 89.62307015 55.84758449 94.10546875 61.24609375 C95.42445987 62.83295945 96.78903526 64.38214582 98.17578125 65.91015625 C112.07348686 81.53735411 123.37228965 99.78425891 132.875 118.375 C133.21934082 119.04450684 133.56368164 119.71401367 133.91845703 120.40380859 C149.14234524 150.3792448 158.11689379 183.04223185 161.875 216.375 C162.04495483 217.70657135 162.21490967 219.0381427 162.39001465 220.4100647 C163.19444938 228.56590141 163.00585416 236.7655325 162.98852539 244.95166016 C162.98824296 246.82503254 162.98840234 248.69840503 162.9889679 250.57177734 C162.98925369 255.63301702 162.98339219 260.69423279 162.97639394 265.75546694 C162.97012411 271.05388548 162.96955373 276.35230463 162.96836853 281.65072632 C162.96526589 291.6731173 162.95706693 301.69549731 162.94701904 311.71788347 C162.93372975 325.26885874 162.92834937 338.81983703 162.92251682 352.37081718 C162.89434526 416.375 162.89434526 416.375 -19.125 416.375 C-19.125 -5.52922198 -19.125 -5.52922198 0 0 Z "
     transform="translate(1146.125,1111.625)"
     style="fill: #203452;"
     id="path6" />
  <path
     d="M 0,0 C 19.88856,25.268252 53.917432,38.714554 82.408966,51.50354 105.99911,62.098408 128.88747,73.698154 151,87.125 l 2.79199,1.679687 C 165.89141,96.092566 177.60683,103.77546 189,112.125 l 3.22656,2.36328 c 2.94465,2.18712 5.86422,4.40272 8.77344,6.63672 l 3.32031,2.54297 c 19.34791,14.99787 38.677,31.432 54.625,50.0625 1.6237,1.89226 3.26899,3.76599 4.92188,5.63281 19.80408,22.41571 36.85995,47.07153 52.13281,72.76172 l 1.48145,2.4873 c 11.66314,19.70831 22.63467,40.05005 31.6123,61.12989 2.19318,5.13209 4.59322,10.16768 6.96143,15.2207 3.05414,6.52354 6.04924,13.07431 9.05246,19.6214 1.10967,2.41817 2.22068,4.83572 3.33206,7.25311 3.339,7.26382 6.67365,14.52937 9.98217,21.80713 5.43327,11.92343 11.05571,23.67225 17.32618,35.17969 1.29834,2.38603 2.58017,4.78049 3.86132,7.17578 9.49534,17.63716 20.07148,34.49198 31.51563,50.92578 8.24836,11.89859 8.24836,11.89859 5.62891,14.00781 C 423.3117,498.00655 410.48935,510.17827 400,524.125 l -2.62891,3.47656 c -16.3187,21.81168 -30.1043,45.25206 -43.82422,68.7461 C 329.40383,637.68077 329.40383,637.68077 319,653.125 l -1.71631,2.56592 C 305.34319,673.51851 292.77429,690.66975 279,707.125 l -2.54858,3.07007 c -7.1304,8.5098 -14.69543,16.4863 -22.56983,24.30908 -1.95314,1.94235 -3.89527,3.89528 -5.83667,5.84937 -7.03329,7.0407 -14.21031,13.61493 -22.04492,19.77148 -1.85689,1.58013 -3.71168,3.16276 -5.5625,4.75 C 168.2018,808.32652 103.16667,834.71783 40.164062,858.31439 3.9001146,871.6475 3.9001146,871.6475 -31,888.125 l -3.183594,1.69922 c -11.016212,6.14558 -24.998137,15.62532 -29.448063,28.04715 -14.939454,-6.50143 -30.894545,-14.21401 -45.180843,-22.05887 l -2.33789,-1.2749 c -3.42397,-1.90434 -13.02535,-7.28102 -15.81608,-10.07175 l 11.12663,2.05759 c 6.56845,-2.63107 12.91464,-5.68348 19.27734,-8.77344 l 3.839355,-1.86377 C -70.218324,864.90643 -48.367454,853.19058 -27,840.125 l 2.654297,-1.61621 C 1.2785197,822.84275 25.733647,805.10187 49,786.125 l 2.878906,-2.32422 c 11.011071,-8.92746 21.691614,-18.17591 32.0625,-27.83594 3.67237,-3.40972 7.396255,-6.7586 11.132813,-10.09765 1.340669,-1.21286 2.64742,-2.46383 3.925781,-3.74219 2.5196,-0.27667 5.05306,-0.4301 7.58594,-0.52734 1.57683,-0.0684 3.15365,-0.13713 4.73047,-0.20606 l 2.50439,-0.0995 c 21.18594,-0.86772 40.52789,-3.23357 60.83008,-9.4591 3.28583,-0.99033 6.59913,-1.87406 9.91162,-2.77051 12.13919,-3.49483 23.25071,-9.17363 34.4375,-14.9375 l 3.93359,-2.01172 C 250.66338,697.66654 275.64585,676.67975 295,652.125 l 2.79687,-3.35156 C 336.66347,602.03545 358.68381,538.62203 360,478.125 l 0.0986,-3.88232 c 0.70081,-31.4055 -0.90265,-63.2523 -10.02051,-93.53174 -0.73433,-2.44247 -1.43087,-4.89655 -2.09375,-7.35938 C 334.17957,323.0904 305.12867,273.78957 265,240.125 l -3.35547,-2.86719 C 236.64353,216.18379 208.01316,201.24225 177,191.125 c -1.50715,-0.51506 -3.01372,-1.03181 -4.51953,-1.55078 -12.02771,-4.00137 -51.15878,-8.84005 -63.81073,-9.33795 -28.152125,-1.31564 -0.84921,1.21762 -8.66974,-14.11127 -2.300581,-2.86139 -2.300581,-2.86139 -4.75,-5.375 -2.558201,-2.78379 -5.092725,-5.57494 -7.5625,-8.4375 -8.988686,-10.29068 -18.441073,-20.10535 -28.116211,-29.74658 -1.837447,-1.83203 -3.669406,-3.66943 -5.500977,-5.50733 C 48.218971,111.20395 42.321118,105.47602 36,100.125 34.392316,98.670545 32.787603,97.212791 31.1875,95.75 26.867392,91.851366 22.419286,88.149961 17.894531,84.492187 14.846301,81.999303 11.861593,79.441313 8.875,76.875 1.7866988,70.855837 -5.5866983,65.244732 -13.004395,59.640137 -15.833764,57.491976 -18.633768,55.306466 -21.4375,53.125 -33.823473,43.597329 -46.629723,34.633734 -59.451416,25.706055 l -2.415771,-1.682618 -2.128418,-1.479003 c -1.35895,-0.962355 -2.696412,-1.955651 -4.012696,-2.975586 C -70.236753,17.870884 -70.236753,17.870884 -74,16.125 -56.025984,8.3395973 -37.548631,1.7910345 -18.6875,-3.5 l 2.746826,-0.7873535 C -8.0893064,-6.4061194 -4.8463881,-6.6827149 0,0 Z"
     transform="translate(607,583.875)"
     style="fill:#69daf3"
     id="path7"
     sodipodi:nodetypes="cccccccccccccccccccccccccccccccccccccccccccccccccccccccccccccccccccccccccccccccccccccc" />
  <path
     d="M 0,0 C 2.4453837,2.8248e-4 4.8907675,1.2296e-4 7.3361511,-4.425e-4 13.938425,-7.2812e-4 20.54068,0.00513038 27.14295,0.01213145 c 6.913296,0.0062729 13.826594,0.0068404 20.739893,0.0080254 13.075113,0.0031017 26.150217,0.01129947 39.225327,0.02134949 17.67985,0.01329294 35.35971,0.0186704 53.03956,0.02450222 83.49729,0.02816538 83.49729,0.02816538 83.49729,165.04752143 -75.75572,0.36298 -75.75572,0.36298 -107.36523,0.43945 -7.23528,0.0176 -14.47055,0.0358 -21.705815,0.0549 l -2.747973,0.007 c -14.64282,0.0391 -29.285321,0.11011 -43.927952,0.1928 -15.025788,0.0842 -30.051411,0.13415 -45.0774256,0.15242 -9.2730942,0.0124 -18.5452904,0.0514 -27.8181084,0.12445 -6.357578,0.0476 -12.714691,0.062 -19.072434,0.0503 -3.669327,-0.006 -7.336753,0.008 -11.005874,0.0513 -3.979378,0.0447 -7.954891,0.0341 -11.934355,0.009 l -3.510811,0.0794 c -8.644888,-0.14486 -11.450275,-2.9637 -15.834022,-10.16173 -3.558204,-4.10325 -7.267648,-8.05495 -11,-12 l -2.66016,-2.82422 c -6.89784,-7.12135 -14.34438,-13.33995 -22.33984,-19.17578 l -1.94629,-1.42481 c -19.52558,-14.08856 -41.30336,-24.8095 -64.05371,-32.575195 l -3.96094,-1.367187 c -2.6726,-0.903326 -5.34815,-1.785983 -8.03906,-2.632813 0,-4.530959 0.47131,-5.05001 3.375,-8.25 l 1.89844,-2.140625 3.72656,-3.609375 c 2.61763,-2.416275 5.27183,-4.713092 8,-7 l 2.60547,-2.261718 c 17.88375,-15.318362 37.69671,-27.495612 59.08203,-37.300782 l 2.67847,-1.229004 c 5.04938,-2.247671 10.0869,-4.070881 15.40625,-5.573974 2.13605,-0.608396 4.245743,-1.307176 6.35278,-2.009522 l 2.257812,-0.75 c 1.957278,-0.654373 3.909645,-1.323467 5.859375,-2 C -60.10489,2.339327 -30.34845,-0.04929416 0,0 Z"
     transform="translate(1367.355,986.88647)"
     style="fill:#203452"
     id="path8"
     sodipodi:nodetypes="ccccsccsssccccccccccccccccccccccccccc" />
  <path
     d="M 0,0 C 2.8821583,0.01005989 5.7643201,0.01918037 8.6464844,0.02734375 15.618566,0.0490956 22.590516,0.08233008 29.5625,0.125 23.24227,7.6031224 23.24227,7.6031224 19.890625,10.675781 L 17.904053,12.515869 15.8125,14.4375 C 8.6371608,21.100258 1.6687463,27.93935 -5.1962891,34.921143 l -2.1201171,2.145263 -1.8303223,1.865479 c -1.9854195,1.90078 -4.0127825,3.700703 -6.0910645,5.497802 -3.998256,3.47692 -7.776687,7.127169 -11.516113,10.878907 l -2.000473,1.997574 c -1.383476,1.3828 -2.765712,2.766843 -4.146744,4.152084 -2.093694,2.099051 -4.192676,4.192707 -6.292236,6.285889 -1.353837,1.354497 -2.707363,2.709304 -4.060547,4.064453 l -1.869278,1.863144 c -3.737929,3.757755 -7.284935,7.632621 -10.736542,11.655304 -2.397036,2.731551 -4.981526,5.256949 -7.577774,7.797958 -3.879727,3.846074 -7.618442,7.71846 -11.160156,11.875 -3.24367,3.7464 -6.633518,7.36051 -9.996094,11 -18.36801,20.18462 -35.10852,41.84529 -50.84375,64.125 l -1.4082,1.98926 c -17.95133,25.45472 -33.55458,52.22316 -47.5918,80.01074 l -1.31982,2.60693 c -9.31258,18.54997 -17.43998,37.79675 -22.93018,57.83057 -2.99683,10.81298 -7.94645,20.38051 -13.33301,30.19116 -3.79933,6.96038 -6.86884,13.80969 -9.3872,21.33496 -0.90223,2.66027 -1.90855,5.21285 -3.02979,7.78638 -1.77882,4.41837 -3.18693,8.92506 -4.5,13.5 l -0.6709,2.30273 c -1.19637,4.34106 -2.00675,8.52476 -2.43847,13.00977 -1.5549,14.81801 -5.98716,20.49634 -18.12891,28.81201 -3.62885,2.60804 -6.84118,5.6117 -10.07422,8.68799 l -1.85254,1.74438 c -7.44684,7.09009 -14.3761,14.66228 -21.02246,22.50562 -2.3125,2.6875 -2.3125,2.6875 -3.3125,2.6875 -0.22919,-39.71224 -0.40525,-79.42435 -0.51065,-119.13712 -0.0125,-4.69477 -0.0254,-9.38955 -0.0387,-14.08432 l -0.008,-2.8321 c -0.0434,-15.10746 -0.12224,-30.21453 -0.21426,-45.32176 -0.0937,-15.51626 -0.1491,-31.03232 -0.16935,-46.54885 -0.0137,-9.56488 -0.0568,-19.12869 -0.13828,-28.69324 -0.0531,-6.57025 -0.0688,-13.13995 -0.0559,-19.7104 0.006,-3.78444 -0.009,-7.56548 -0.057,-11.34984 -1.79302,-34.27808 18.48022,-56.82407 40.1608,-81.10753 1.80967,-1.97323 3.54965,-3.98592 5.28125,-6.02734 7.54614,-8.654312 15.88266,-16.893147 24.75,-24.1875 l 3.15234,-2.628906 c 14.9364,-12.301572 30.96463,-22.941162 47.84775,-32.371094 l 2.15137,-1.220703 C -144.64608,23.182908 -111.78973,12.443753 -78.4375,6.125 l 2.848633,-0.5576172 C -72.70797,5.0072356 -69.823967,4.4681479 -66.9375,3.9375 l 2.472168,-0.4699707 C -43.130401,-0.26740662 -21.58283,-0.13257113 0,0 Z"
     transform="translate(1423.4375,568.875)"
     style="fill:#203452"
     id="path9"
     sodipodi:nodetypes="ccccccccccccccccccccccccccccccccccccssscccccccccccccccc" />
  <path
     d="M0 0 C5.19183684 3.99588527 10.490241 7.7718123 15.875 11.5 C41.03655198 29.04164234 65.04858035 47.96637078 88.375 67.875 C89.48230469 68.80699219 90.58960938 69.73898437 91.73046875 70.69921875 C106.15075019 82.86735772 119.58617383 95.99434001 132.9375 109.3125 C133.55022766 109.92254883 134.16295532 110.53259766 134.79425049 111.16113281 C141.20613742 117.5517492 147.51946392 123.96304735 153.375 130.875 C154.82945517 132.48268373 156.28720895 134.08739715 157.75 135.6875 C161.76830814 140.13781055 165.58852204 144.72256581 169.35546875 149.38671875 C171.01786841 151.4349752 172.71346702 153.44150689 174.4375 155.4375 C176.375 157.875 176.375 157.875 176.375 159.875 C175.6629541 159.8843457 174.9509082 159.89369141 174.21728516 159.90332031 C109.14339919 160.96481661 50.6149561 182.9570937 2.90625 227.58984375 C-2.33816085 232.32438133 -2.33816085 232.32438133 -4.5 228.9375 C-6.28178846 225.84664638 -6.28178846 225.84664638 -8.625 224.875 C-8.625 224.215 -8.625 223.555 -8.625 222.875 C-9.945 222.215 -11.265 221.555 -12.625 220.875 C-14.24001764 219.41123726 -15.80285474 217.88909065 -17.328125 216.33203125 C-18.67583984 214.96788086 -18.67583984 214.96788086 -20.05078125 213.57617188 C-20.98277344 212.62291016 -21.91476562 211.66964844 -22.875 210.6875 C-28.94243496 204.50486058 -35.02073485 198.48251031 -41.625 192.875 C-42.81688821 191.83015663 -44.00701798 190.78330366 -45.1953125 189.734375 C-53.46374576 182.48669335 -61.93093058 175.60970383 -70.625 168.875 C-72.87502364 167.08336302 -75.12502337 165.29169601 -77.375 163.5 C-100.55176392 145.33024298 -125.35145175 129.3001393 -151.125 115.0625 C-152.2903125 114.41667969 -153.455625 113.77085937 -154.65625 113.10546875 C-157.74020109 111.48198103 -157.74020109 111.48198103 -161.625 112.875 C-162.615 112.875 -163.605 112.875 -164.625 112.875 C-163.91214844 112.1015625 -163.19929688 111.328125 -162.46484375 110.53125 C-161.02818359 108.96890625 -161.02818359 108.96890625 -159.5625 107.375 C-158.62277344 106.3540625 -157.68304688 105.333125 -156.71484375 104.28125 C-154.55644895 101.92313867 -152.45799236 99.522473 -150.375 97.09765625 C-146.03206527 92.11778954 -141.36849057 87.47242084 -136.6875 82.8125 C-135.40456055 81.52375977 -135.40456055 81.52375977 -134.09570312 80.20898438 C-129.10122561 75.2221262 -123.99969154 70.44813188 -118.625 65.875 C-117.62597656 65.00617188 -116.62695312 64.13734375 -115.59765625 63.2421875 C-88.00444623 39.61202912 -58.05787735 20.17004185 -25.625 3.875 C-24.4484082 3.27969482 -24.4484082 3.27969482 -23.24804688 2.67236328 C-6.9201007 -5.53145173 -6.9201007 -5.53145173 0 0 Z "
     transform="translate(541.625,604.125)"
     style="fill: #364E6D;"
     id="path10" />
  <path
     d="M0 0 C0.73863281 0.55042969 1.47726562 1.10085938 2.23828125 1.66796875 C4.20292591 3.13789825 6.1573277 4.62154809 8.10546875 6.11328125 C49.50511169 37.30974065 94.99569785 50.92306649 145.9375 55.6875 C142.0854429 60.31227514 138.15123242 64.50556093 133.6875 68.5625 C133.1217627 69.0778833 132.55602539 69.5932666 131.97314453 70.12426758 C130.29767333 71.64873369 128.61766163 73.16820491 126.9375 74.6875 C126.05320312 75.49832031 125.16890625 76.30914063 124.2578125 77.14453125 C119.2274839 81.73289807 114.05952162 86.10576045 108.765625 90.38671875 C105.91806615 92.70331013 103.11546109 95.06723645 100.3125 97.4375 C93.4321418 103.17555935 86.33721718 108.61085593 79.18066406 113.99755859 C77.71911349 115.09865274 76.25999882 116.20299003 74.80371094 117.31103516 C46.50692667 138.8230962 16.25381137 157.8974692 -15.0625 174.6875 C-15.88766113 175.1309375 -16.71282227 175.574375 -17.56298828 176.03125 C-24.35496411 179.66507693 -31.1964689 183.19589721 -38.0625 186.6875 C-39.36268066 187.35168945 -40.66286133 188.01587891 -42.00244141 188.70019531 C-45.48685627 190.47529591 -48.98245098 192.22674452 -52.48550415 193.9647522 C-53.86010898 194.64990361 -55.23174289 195.34105117 -56.60018921 196.03842163 C-58.52686784 197.01812525 -60.46639547 197.97243235 -62.40625 198.92578125 C-63.52193359 199.48305908 -64.63761719 200.04033691 -65.78710938 200.61450195 C-71.12718328 202.36387769 -75.59646442 201.50285401 -80.1640625 198.30859375 C-80.89093262 197.80763184 -81.61780273 197.30666992 -82.36669922 196.79052734 C-83.13256348 196.24090332 -83.89842773 195.6912793 -84.6875 195.125 C-85.5036377 194.55217285 -86.31977539 193.9793457 -87.16064453 193.38916016 C-101.63230911 183.1401137 -115.70649154 172.35664261 -129.0625 160.6875 C-129.73410156 160.11515625 -130.40570313 159.5428125 -131.09765625 158.953125 C-145.55468313 146.55261787 -159.7730493 133.25373314 -172.0625 118.6875 C-172.95324219 117.66269531 -173.84398437 116.63789062 -174.76171875 115.58203125 C-181.79552103 107.48239728 -188.52194721 99.19134051 -195.0625 90.6875 C-195.65933594 89.95789062 -196.25617188 89.22828125 -196.87109375 88.4765625 C-198.0625 86.6875 -198.0625 86.6875 -198.0625 83.6875 C-192.02058459 82.0956181 -185.98628529 80.66278398 -179.84521484 79.50366211 C-167.00142438 77.02144506 -154.7122311 72.95025818 -142.32861328 68.78515625 C-139.49297345 67.832171 -136.6522111 66.8975502 -133.80859375 65.96875 C-90.44297956 51.55756234 -48.8597225 29.49243211 0 0 Z "
     transform="translate(560.0625,1270.3125)"
     style="fill: #364E6D;"
     id="path11" />
  <path
     d="M0 0 C1.08539062 0.30035156 2.17078125 0.60070312 3.2890625 0.91015625 C27.62722714 8.05789092 51.64689351 18.03104088 73.875 30.25 C74.58205078 30.63800781 75.28910156 31.02601563 76.01757812 31.42578125 C91.94778376 40.43711522 88.34338884 43.86676488 76.44140625 55.62109375 C75.73402817 56.32468521 75.02665009 57.02827667 74.2978363 57.75318909 C71.30156801 60.73326658 68.29934942 63.70732249 65.29760742 66.68188477 C63.09343156 68.86784232 60.89236657 71.05689934 58.69140625 73.24609375 C58.02452286 73.9046788 57.35763947 74.56326385 56.67054749 75.24180603 C52.78193172 79.11037628 49.08791382 83.09070581 45.5103302 87.24908447 C43.43598809 89.65385517 41.27985082 91.97989213 39.125 94.3125 C35.08720678 98.74496474 31.22692566 103.27742177 27.46484375 107.9453125 C25.65914825 110.1831158 23.84020688 112.40481899 22.00390625 114.6171875 C-3.16810116 145.05347774 -27.78608049 179.9295265 -42 217 C-48.62528418 216.28930205 -55.04612047 214.99769612 -61.5625 213.625 C-73.65592693 211.14843002 -85.736582 209.37303768 -98 208 C-98.79599609 207.9062207 -99.59199219 207.81244141 -100.41210938 207.71582031 C-132.72060394 203.95238339 -165.51284031 203.63909167 -198 203 C-196.63568978 195.29043635 -193.89585502 188.74843279 -190.5625 181.6875 C-189.76114624 179.97542358 -189.76114624 179.97542358 -188.94360352 178.22875977 C-181.13622135 161.73959627 -172.24887034 146.08831965 -162 131 C-161.52449707 130.2977832 -161.04899414 129.59556641 -160.55908203 128.87207031 C-151.26746164 115.23111475 -141.14001324 102.31671133 -129.97265625 90.15625 C-128.12586911 88.13758366 -126.34051319 86.07916159 -124.5625 84 C-118.54022324 77.09947454 -111.99174011 70.6977772 -105.02734375 64.75390625 C-103.62158423 63.53774821 -102.24005267 62.29323499 -100.87890625 61.02734375 C-93.04467525 53.7479824 -84.56768748 47.37909158 -76 41 C-75.28279785 40.4632666 -74.5655957 39.9265332 -73.82666016 39.37353516 C-57.41832503 27.13712633 -40.12188683 16.33231375 -22.52001953 5.90600586 C-21.75028809 5.4497583 -20.98055664 4.99351074 -20.1875 4.5234375 C-19.1039624 3.88378052 -19.1039624 3.88378052 -17.99853516 3.23120117 C-16.18400217 2.11335487 -14.44170575 0.88032302 -12.7109375 -0.36328125 C-8.35388232 -2.99383762 -4.59034623 -1.35541719 0 0 Z "
     transform="translate(1594,589)"
     style="fill: #3285BA;"
     id="path12" />
  <path
     d="M0 0 C5.19183684 3.99588527 10.490241 7.7718123 15.875 11.5 C41.03655198 29.04164234 65.04858035 47.96637078 88.375 67.875 C89.48230469 68.80699219 90.58960938 69.73898437 91.73046875 70.69921875 C106.15075019 82.86735772 119.58617383 95.99434001 132.9375 109.3125 C133.55022766 109.92254883 134.16295532 110.53259766 134.79425049 111.16113281 C141.20613742 117.5517492 147.51946392 123.96304735 153.375 130.875 C154.82945517 132.48268373 156.28720895 134.08739715 157.75 135.6875 C161.76830814 140.13781055 165.58852204 144.72256581 169.35546875 149.38671875 C171.01786841 151.4349752 172.71346702 153.44150689 174.4375 155.4375 C176.375 157.875 176.375 157.875 176.375 159.875 C175.6629541 159.8843457 174.9509082 159.89369141 174.21728516 159.90332031 C151.59034514 160.27241481 129.7356014 162.44436591 107.86938477 168.47558594 C99.3470177 170.73127943 96.15301979 166.95495064 90.4375 161.125 C89.82970703 160.5165625 89.22191406 159.908125 88.59570312 159.28125 C84.97868151 155.62911168 81.65782097 151.83385494 78.375 147.875 C74.3558509 143.70178351 70.10719003 139.76756116 65.875 135.8125 C65.17157471 135.15491699 64.46814941 134.49733398 63.7434082 133.81982422 C62.30680602 132.47782715 60.86971568 131.13635245 59.43212891 129.79541016 C57.55993696 128.04764587 55.69173527 126.29572465 53.82421875 124.54296875 C48.09012093 119.19343317 42.27513445 114.04239212 36.16015625 109.1328125 C33.16343023 106.70348902 30.23938553 104.20044552 27.3125 101.6875 C14.83710819 91.11889201 1.89445072 81.24668804 -11.70019531 72.16308594 C-13.61632128 70.88080783 -15.52364555 69.58627085 -17.4296875 68.2890625 C-24.88053525 63.24078026 -32.45859234 58.47767361 -40.203125 53.8984375 C-43.05260854 52.21346892 -45.87128122 50.48942925 -48.6875 48.75 C-53.74493278 45.70203133 -59.03144314 43.1567692 -64.328125 40.5546875 C-76.18563235 34.51354039 -76.18563235 34.51354039 -74.19140625 32.2421875 C-70.62889872 28.95622165 -66.68021104 26.53743564 -62.5625 24 C-61.65435547 23.43917725 -60.74621094 22.87835449 -59.81054688 22.30053711 C-48.09760982 15.19037527 -35.91039629 8.93073826 -23.625 2.875 C-21.89636719 2.01237549 -21.89636719 2.01237549 -20.1328125 1.13232422 C-18.99585938 0.58205566 -17.85890625 0.03178711 -16.6875 -0.53515625 C-15.66785156 -1.03281494 -14.64820313 -1.53047363 -13.59765625 -2.04321289 C-8.04770836 -4.06290894 -4.56016499 -3.64508171 0 0 Z "
     transform="translate(541.625,604.125)"
     style="fill: #2D659C;"
     id="path13" />
  <path
     d="M 0,0 3.2675781,0.33154297 6.859375,0.72265625 C 9.43739,0.97508412 12.01552,1.226345 14.59375,1.4765625 c 2.671978,0.2685076 5.343852,0.5380509 8.015625,0.8085938 l 4.171875,0.4199218 c 3.359468,0.3382798 6.718839,0.6774905 10.078125,1.0175782 -3.852057,4.6247751 -7.786268,8.8180607 -12.25,12.8749997 l -1.714355,1.561768 c -1.675472,1.524466 -3.355483,3.043937 -5.035645,4.563232 l -2.679687,2.457031 c -5.030329,4.588367 -10.1982914,8.96123 -15.492188,13.242188 -2.8475589,2.316591 -5.6501639,4.680518 -8.453125,7.050781 -6.880358,5.73806 -13.975283,11.173356 -21.131836,16.560059 -1.461551,1.101094 -2.920665,2.205431 -4.376953,3.313476 -28.296784,21.512061 -58.5499,40.586439 -89.866216,57.376469 l -2.50048,1.34375 c -6.79198,3.63382 -13.63348,7.16464 -20.49951,10.65625 l -3.93995,2.01269 c -3.48441,1.7751 -6.98001,3.52655 -10.48306,5.26456 -1.3746,0.68515 -2.74624,1.3763 -4.11468,2.07367 -1.92668,0.9797 -3.86621,1.93401 -5.80606,2.88736 l -3.38086,1.68872 c -5.34008,1.74937 -9.80936,0.88835 -14.37696,-2.30591 l -2.20288,-1.51831 -2.32055,-1.66528 -2.47095,-1.73365 c -42.14631,-29.84047 -43.48177,-34.50482 -43.48177,-34.50482 0,0 85.40038,-23.359374 89.34725,-25.167784 4.95396,-2.29045 10.06683,-4.240582 15.1914,-6.113281 7.58249,-2.798968 14.74676,-6.156032 21.92188,-9.855469 3.10761,-1.589605 6.26099,-3.036317 9.44922,-4.457031 5.562068,-2.507429 10.896192,-5.33659 16.230465,-8.292969 l 2.875488,-1.583496 c 1.933574,-1.06565 3.866204,-2.133013 5.797852,-3.202148 2.537817,-1.401829 5.081267,-2.792627 7.627441,-4.1792 C -54.852613,35.094455 -16.021655,-1.721661 0,0 Z"
     transform="translate(669.14062,1322.2773)"
     style="fill:#2d659c"
     id="path14"
     sodipodi:nodetypes="cccccsccccccccccccccccccccccccccccccc" />
</svg>
